<?xml version="1.0" standalone="no"?>
<!DOCTYPE svg PUBLIC "-//W3C//DTD SVG 20010904//EN"
 "http://www.w3.org/TR/2001/REC-SVG-20010904/DTD/svg10.dtd">
<svg version="1.0" xmlns="http://www.w3.org/2000/svg"
 width="1024.000000pt" height="1024.000000pt" viewBox="0 0 1024.000000 1024.000000"
 preserveAspectRatio="xMidYMid meet">

<g transform="translate(0.000000,1024.000000) scale(0.100000,-0.100000)"
fill="#000000" stroke="none">
<path d="M1428 10071 c-100 -54 -178 -114 -284 -221 -84 -84 -136 -174 -166
-285 -30 -115 -69 -306 -74 -365 -6 -71 -18 -107 -52 -148 -27 -33 -75 -51
-118 -44 -12 2 -49 29 -83 60 -55 52 -84 92 -206 286 -42 67 -66 89 -87 80
-13 -5 -83 -88 -103 -122 -5 -9 -24 -37 -41 -62 -112 -162 -189 -426 -162
-552 5 -24 9 -51 9 -60 0 -10 5 -18 10 -18 11 0 31 -45 33 -75 1 -11 9 -31 19
-45 9 -13 17 -29 17 -34 0 -5 6 -14 14 -20 19 -15 66 -103 66 -123 0 -10 15
-33 34 -53 51 -53 143 -193 151 -230 4 -18 21 -46 39 -62 37 -35 117 -78 146
-78 18 0 20 -6 20 -54 0 -30 5 -58 10 -61 17 -10 11 -27 -8 -21 -15 5 -17 -1
-17 -47 0 -33 5 -56 14 -63 9 -7 12 -20 8 -34 -4 -15 3 -36 19 -61 28 -46 28
-46 9 -90 -45 -98 -56 -106 -76 -57 -7 18 -35 61 -60 95 -26 34 -53 77 -59 95
-7 18 -31 47 -54 65 -22 17 -62 53 -88 78 -29 30 -55 47 -70 47 -39 -1 -88
-14 -88 -23 0 -5 -7 -9 -15 -9 -9 0 -18 -6 -21 -14 -3 -7 -27 -25 -53 -40 -29
-15 -51 -35 -55 -48 -3 -13 -6 -91 -6 -174 0 -135 2 -153 18 -160 9 -4 21 -6
25 -5 5 1 6 -2 3 -7 -3 -5 4 -16 15 -25 10 -9 19 -15 19 -13 0 5 157 -148 157
-154 0 -3 1 -10 2 -15 0 -6 13 -12 29 -13 15 -1 39 -11 54 -22 19 -14 28 -16
31 -7 3 6 6 -2 6 -18 1 -34 -23 -75 -43 -75 -8 0 -16 -7 -20 -15 -7 -19 -87
-22 -84 -3 2 7 -3 13 -9 14 -7 1 -17 2 -23 3 -5 0 -10 7 -10 14 0 9 -10 12
-31 9 -22 -3 -30 -1 -25 7 4 6 1 11 -9 11 -10 0 -13 -5 -9 -12 5 -8 2 -9 -9
-5 -10 3 -17 2 -17 -3 0 -6 5 -10 10 -10 6 0 10 -4 10 -10 0 -5 -11 -10 -25
-10 -14 0 -25 -4 -25 -10 0 -5 -9 -10 -20 -10 -19 0 -20 -7 -20 -155 0 -132 2
-155 15 -155 9 0 20 -11 25 -25 10 -26 24 -32 35 -15 3 6 25 9 48 8 l42 -1
-45 -7 -45 -7 52 -1 c28 -1 54 -6 57 -11 11 -16 45 0 38 17 -5 15 -3 15 12 -1
16 -16 21 -16 41 -3 14 9 35 13 55 10 21 -4 36 -1 41 8 7 11 11 10 19 -2 9
-13 13 -11 29 10 23 29 41 19 22 -13 -13 -21 -12 -20 13 2 17 16 22 27 15 31
-6 5 -3 9 10 13 11 2 29 20 40 38 12 19 21 30 21 24 1 -5 8 4 17 20 10 17 16
33 15 38 -1 4 5 7 13 7 8 0 22 15 31 33 9 17 21 35 26 38 16 10 101 175 101
197 0 6 5 12 10 12 5 0 7 7 3 15 -3 8 -1 15 5 15 6 0 8 7 5 16 -3 9 -2 12 5 9
6 -4 13 2 16 14 3 12 10 21 15 21 6 0 8 7 5 14 -4 10 -1 13 9 9 7 -3 14 -1 14
4 0 22 62 45 113 41 51 -3 52 -2 72 35 11 21 27 42 35 47 8 4 46 3 83 -3 53
-8 80 -7 120 3 79 21 520 23 566 3 25 -11 42 -13 65 -6 39 12 98 -7 181 -56
49 -30 65 -47 91 -96 18 -33 33 -65 33 -71 1 -6 25 -46 54 -90 72 -110 158
-198 221 -225 47 -20 56 -21 110 -10 35 7 69 22 85 37 14 13 29 24 32 24 8 0
22 45 25 84 1 19 17 42 46 71 25 24 51 61 60 86 26 73 96 326 103 374 17 112
25 209 25 306 0 96 -3 120 -17 138 -15 18 -23 20 -51 12 -38 -11 -68 -35 -172
-135 -69 -67 -138 -129 -201 -181 -85 -70 -182 -114 -251 -115 -20 0 -49 -5
-63 -12 -22 -10 -28 -9 -36 3 -14 22 -11 86 7 127 9 20 19 50 23 67 4 18 14
31 26 34 11 2 43 23 73 47 30 24 62 44 73 44 15 0 19 7 19 31 0 22 4 30 14 26
7 -3 36 5 63 18 119 55 226 152 264 242 12 26 27 55 33 63 15 18 60 127 81
195 9 28 19 107 22 177 7 149 -1 172 -64 184 -117 21 -169 80 -179 205 -3 40
-8 76 -10 78 -2 2 -48 -25 -101 -61 -54 -36 -121 -77 -150 -92 -28 -14 -55
-31 -58 -36 -4 -6 -41 -37 -84 -68 -42 -30 -104 -81 -138 -111 -68 -62 -162
-106 -250 -117 -29 -4 -53 -10 -53 -15 0 -12 -37 -12 -42 0 -1 5 -26 20 -55
35 -45 22 -53 31 -59 62 -9 49 1 132 19 169 9 17 37 86 63 155 25 69 61 163
79 210 62 158 73 286 47 525 -12 110 -58 270 -86 298 -7 6 -26 30 -42 52 -48
66 -144 147 -171 144 -4 -1 -47 -22 -95 -48z m-718 -2441 c0 -5 -4 -10 -10
-10 -5 0 -10 5 -10 10 0 6 5 10 10 10 6 0 10 -4 10 -10z m-287 -630 c-7 -27
-20 -16 -20 15 0 19 2 23 12 15 7 -6 11 -20 8 -30z m51 1 c3 -5 -5 -11 -19
-13 -17 -4 -25 -1 -25 8 0 15 36 19 44 5z m-76 -19 c2 -7 -3 -12 -12 -12 -9 0
-16 7 -16 16 0 17 22 14 28 -4z m-88 -162 c0 -11 -6 -20 -13 -20 -7 0 -13 9
-13 20 0 11 6 20 13 20 7 0 13 -9 13 -20z"/>
<path d="M5640 8809 c-11 -26 -10 -44 9 -127 13 -53 29 -110 36 -127 7 -16 26
-66 40 -110 51 -150 108 -263 185 -365 88 -116 122 -142 234 -179 98 -33 136
-36 203 -16 29 9 90 -52 168 -169 32 -49 68 -98 80 -110 12 -12 43 -51 68 -86
46 -63 142 -173 203 -234 17 -17 40 -47 52 -68 21 -34 22 -39 8 -80 -8 -23
-17 -72 -21 -108 -6 -59 -19 -150 -31 -208 -4 -19 -9 -22 -27 -16 -12 3 -31
14 -42 23 -43 37 -180 93 -322 132 -71 19 -97 20 -120 6 -7 -5 -13 -5 -13 0 0
4 -5 1 -10 -7 -14 -23 -1 -88 31 -158 29 -60 137 -203 189 -249 26 -23 169
-83 198 -83 8 0 34 -9 56 -19 42 -20 125 -51 139 -51 4 0 7 10 7 22 0 12 7 29
16 39 13 14 20 16 40 7 28 -13 31 -34 7 -60 -9 -10 -12 -18 -7 -18 22 0 94
143 94 187 0 35 15 42 48 23 35 -20 149 -43 217 -43 87 1 144 24 229 94 52 44
66 63 97 133 57 130 76 223 78 378 2 114 -8 138 -56 138 -17 0 -35 -5 -38 -10
-4 -6 -32 -23 -63 -39 -52 -27 -122 -78 -226 -167 -21 -18 -52 -36 -68 -39
-23 -6 -27 -9 -17 -21 9 -11 5 -17 -20 -31 -17 -10 -31 -20 -31 -23 -2 -37
-28 -18 -163 115 -81 80 -147 149 -147 153 0 4 -21 28 -46 52 -68 66 -121 190
-96 226 25 36 102 58 117 34 3 -5 32 -10 63 -10 98 0 191 73 246 194 10 22 25
97 34 178 14 121 14 157 3 276 -7 75 -17 173 -21 217 -7 83 -30 152 -55 171
-14 10 -49 8 -104 -7 -27 -7 -96 -84 -135 -149 -22 -36 -45 -72 -52 -80 -24
-30 -113 -217 -138 -291 -13 -41 -30 -123 -37 -181 -10 -92 -9 -118 6 -199 9
-51 25 -113 34 -138 22 -56 35 -121 24 -120 -9 1 -100 103 -123 138 -8 13 -44
60 -79 105 -34 44 -66 88 -69 96 -3 8 -18 32 -34 52 -52 66 -69 120 -71 221
-2 89 -4 95 -55 200 -30 60 -68 125 -86 145 -17 21 -44 55 -59 77 -15 22 -46
61 -69 86 -24 25 -52 56 -63 70 -39 48 -146 128 -213 159 -37 18 -74 38 -82
44 -17 14 -88 36 -117 36 -13 0 -25 -11 -33 -31z m1382 -1734 c67 -76 128
-159 128 -175 0 -7 8 -9 20 -5 29 9 26 -5 -22 -103 -49 -101 -62 -118 -80
-102 -7 6 -44 32 -83 58 -57 39 -70 52 -68 72 1 14 11 88 21 165 11 77 17 144
15 149 -16 26 22 -7 69 -59z m-108 -331 c22 -15 46 -33 55 -40 9 -7 32 -24 51
-37 40 -26 47 -49 27 -96 l-14 -33 -26 44 c-14 23 -44 61 -66 83 -95 92 -110
135 -27 79z"/>
<path d="M6004 7623 c-3 -29 -4 -68 0 -86 13 -66 69 -158 141 -231 21 -22 139
-106 149 -106 3 0 33 -13 68 -29 35 -16 79 -35 98 -42 19 -7 37 -16 40 -19 3
-4 52 -33 109 -64 98 -54 106 -57 118 -40 21 28 15 109 -13 192 -27 83 -31 93
-64 165 -26 55 -110 133 -154 143 -17 3 -45 14 -61 23 -17 10 -64 29 -106 44
-42 14 -108 41 -147 60 -39 19 -92 36 -120 39 l-51 5 -7 -54z"/>
<path d="M4793 7218 c2 -7 11 -12 21 -10 9 2 16 -1 16 -6 0 -15 -48 -35 -71
-29 -17 5 -29 -2 -51 -26 -47 -53 -48 -57 -18 -120 15 -31 34 -65 42 -75 26
-32 40 -71 52 -150 2 -13 15 -36 30 -51 18 -18 24 -34 20 -45 -5 -12 -1 -19
12 -22 11 -3 28 -23 38 -45 11 -21 22 -39 26 -39 3 0 14 -25 25 -56 13 -40 26
-59 46 -70 39 -20 92 -18 105 4 11 19 18 210 9 253 -4 15 -15 29 -26 32 -18 5
-20 14 -19 89 1 214 -24 286 -112 331 -29 15 -63 27 -75 27 -12 0 -25 5 -28
10 -9 15 -48 12 -42 -2z"/>
<path d="M5390 7139 c0 -24 23 -21 28 4 2 10 -3 17 -12 17 -10 0 -16 -9 -16
-21z"/>
<path d="M5157 7098 c13 -15 20 -32 17 -48 -17 -106 -17 -123 -1 -135 14 -10
14 -16 1 -56 -8 -24 -19 -52 -24 -61 -16 -28 -12 -48 7 -41 14 6 15 1 9 -36
-4 -28 -2 -48 5 -57 14 -18 3 -48 -15 -41 -28 11 -38 -19 -31 -90 10 -115 9
-113 52 -101 21 5 43 14 50 20 8 6 12 4 15 -6 2 -12 12 -11 53 10 67 33 134
110 172 198 21 50 22 51 62 48 39 -3 41 -2 41 25 0 15 7 49 14 75 l15 47 -35
43 c-25 32 -33 49 -29 67 l6 24 -88 -6 c-88 -6 -88 -6 -121 24 -17 16 -32 34
-32 40 0 5 -9 18 -20 29 -11 11 -15 20 -9 20 6 0 3 7 -5 16 -25 25 -63 6 -57
-28 2 -15 -11 -8 -31 17 -11 14 -24 25 -30 25 -7 0 -2 -10 9 -22z m353 -214
c0 -8 -4 -12 -10 -9 -5 3 -10 10 -10 16 0 5 5 9 10 9 6 0 10 -7 10 -16z"/>
<path d="M37 7060 c3 -11 12 -20 21 -20 13 0 12 3 -3 20 -10 11 -19 20 -21 20
-1 0 0 -9 3 -20z"/>
<path d="M80 7036 c0 -2 11 -6 25 -8 13 -3 22 -1 19 3 -5 9 -44 13 -44 5z"/>
<path d="M0 7000 c0 -13 7 -20 20 -20 13 0 20 7 20 20 0 13 -7 20 -20 20 -13
0 -20 -7 -20 -20z"/>
<path d="M190 7010 c0 -13 20 -13 40 0 12 8 9 10 -12 10 -16 0 -28 -4 -28 -10z"/>
<path d="M5091 6994 c0 -11 3 -14 6 -6 3 7 2 16 -1 19 -3 4 -6 -2 -5 -13z"/>
<path d="M5082 6835 c0 -16 2 -22 5 -12 2 9 2 23 0 30 -3 6 -5 -1 -5 -18z"/>
<path d="M6089 6822 c11 -8 11 -10 0 -15 -10 -4 -8 -6 4 -6 21 -1 18 21 -4 27
-12 3 -12 2 0 -6z"/>
<path d="M3920 6760 c0 -5 9 -10 20 -10 11 0 20 5 20 10 0 6 -9 10 -20 10 -11
0 -20 -4 -20 -10z"/>
<path d="M4606 6751 c-3 -4 -24 -11 -46 -15 -22 -3 -40 -10 -41 -14 -10 -67 1
-95 40 -97 9 -1 31 -2 49 -3 39 -2 59 -37 36 -63 -8 -8 -14 -34 -14 -57 0 -43
-17 -92 -32 -92 -4 0 -8 -7 -8 -15 0 -8 -9 -24 -19 -34 -11 -11 -17 -22 -14
-25 3 -3 -5 -14 -18 -25 -13 -11 -22 -21 -19 -24 3 -2 29 -7 58 -10 45 -5 54
-3 65 13 6 11 19 20 29 20 17 0 34 33 24 48 -3 5 10 24 29 42 25 24 32 37 24
46 -7 8 -4 17 8 29 16 17 18 17 28 0 5 -10 19 -29 30 -42 17 -21 22 -22 38
-11 16 12 17 17 3 54 -8 23 -32 58 -53 77 -81 76 -83 80 -73 92 12 15 4 41
-16 49 -8 3 -14 12 -14 20 0 8 -13 17 -30 21 -16 4 -30 11 -30 16 0 11 -27 12
-34 0z"/>
<path d="M4800 6741 c0 -5 5 -13 10 -16 6 -3 10 -2 10 4 0 5 -4 13 -10 16 -5
3 -10 2 -10 -4z"/>
<path d="M6071 6734 c0 -11 3 -14 6 -6 3 7 2 16 -1 19 -3 4 -6 -2 -5 -13z"/>
<path d="M5750 6720 c0 -5 5 -10 10 -10 6 0 10 5 10 10 0 6 -4 10 -10 10 -5 0
-10 -4 -10 -10z"/>
<path d="M6173 6653 c-19 -7 -16 -19 6 -20 14 -1 18 3 14 13 -3 8 -6 14 -7 13
0 0 -7 -3 -13 -6z"/>
<path d="M3190 6584 c0 -8 5 -12 10 -9 6 3 10 10 10 16 0 5 -4 9 -10 9 -5 0
-10 -7 -10 -16z"/>
<path d="M4898 6567 c-12 -29 -10 -63 3 -50 6 6 9 23 7 39 -2 24 -4 26 -10 11z"/>
<path d="M4517 6550 c-23 -27 -22 -30 13 -30 25 0 30 4 30 25 0 30 -19 32 -43
5z"/>
<path d="M4600 6566 c0 -2 7 -6 15 -10 8 -3 15 -1 15 4 0 6 -7 10 -15 10 -8 0
-15 -2 -15 -4z"/>
<path d="M4580 6530 c0 -5 6 -10 14 -10 8 0 17 -12 19 -27 3 -23 4 -21 6 10 1
31 -2 37 -19 37 -11 0 -20 -4 -20 -10z"/>
<path d="M5602 6433 c-35 -13 -150 -129 -158 -160 -3 -13 -10 -23 -16 -23 -5
0 -6 5 -3 10 3 6 -1 10 -9 10 -8 0 -18 -5 -21 -10 -9 -14 44 -32 82 -28 17 2
29 0 27 -4 -8 -12 74 -9 142 6 l62 13 6 -46 c12 -95 -56 -351 -105 -391 -12
-10 -50 -92 -47 -101 5 -16 61 42 107 110 23 34 46 61 50 61 5 0 9 10 9 23 0
12 6 45 12 72 14 62 19 117 12 130 -4 5 -5 46 -3 90 2 57 8 86 20 101 24 31
16 83 -13 89 -92 18 -127 29 -134 40 -4 6 -13 10 -20 8z"/>
<path d="M4725 6379 c-4 -6 -4 -13 -1 -16 3 -4 6 -1 6 6 0 8 7 11 15 7 8 -3
15 -1 15 4 0 13 -27 13 -35 -1z"/>
<path d="M3870 6359 c0 -5 9 -9 20 -9 11 0 20 2 20 4 0 2 -9 6 -20 9 -11 3
-20 1 -20 -4z"/>
<path d="M5220 6244 c-44 -19 -48 -23 -30 -35 10 -6 5 -7 -17 -3 -17 3 -64 7
-105 8 -71 1 -73 0 -74 -24 -8 -125 -24 -260 -33 -283 -6 -16 -11 -39 -11 -52
0 -19 4 -22 23 -18 12 3 28 10 35 16 7 6 50 7 110 3 104 -7 124 -2 129 36 2
13 8 35 14 50 6 14 8 35 5 46 -4 10 0 31 7 46 22 40 15 111 -13 141 -12 13
-27 22 -31 19 -15 -9 -10 16 5 32 10 9 38 14 83 15 66 1 67 2 23 10 -64 11
-81 10 -120 -7z m-155 -74 c3 -5 -1 -10 -10 -10 -9 0 -13 5 -10 10 3 6 8 10
10 10 2 0 7 -4 10 -10z m85 0 c-20 -13 -43 -13 -35 0 3 6 16 10 28 10 18 0 19
-2 7 -10z"/>
<path d="M4431 6208 c2 -37 20 -88 31 -88 13 0 9 48 -4 52 -9 3 -8 11 4 30 18
28 15 38 -14 38 -14 0 -18 -7 -17 -32z"/>
<path d="M5290 6185 c-7 -8 -8 -15 -2 -15 5 0 15 7 22 15 7 8 8 15 2 15 -5 0
-15 -7 -22 -15z"/>
<path d="M395 6018 c-16 -6 -34 -18 -39 -26 -18 -30 -89 -102 -101 -102 -6 0
-19 -8 -27 -17 -20 -24 -58 -129 -58 -159 0 -34 37 -146 65 -197 38 -70 62
-159 64 -236 2 -55 11 -29 17 45 11 136 59 303 106 361 16 21 38 54 47 73 27
55 62 113 82 139 27 34 24 58 -15 97 -37 37 -80 43 -141 22z"/>
<path d="M6967 5993 c-13 -13 -7 -21 13 -16 11 3 20 9 20 14 0 10 -24 12 -33
2z"/>
<path d="M2484 5980 c-37 -15 -54 -49 -47 -94 3 -23 12 -50 18 -61 7 -11 27
-67 45 -125 59 -193 68 -212 126 -275 30 -33 67 -80 82 -105 14 -25 30 -47 34
-48 5 -2 16 -11 24 -20 15 -15 16 -14 9 8 -5 14 -7 72 -5 130 9 280 7 309 -27
385 -36 80 -65 119 -125 168 -46 37 -99 52 -134 37z"/>
<path d="M3860 5960 c0 -5 9 -10 21 -10 11 0 17 5 14 10 -3 6 -13 10 -21 10
-8 0 -14 -4 -14 -10z"/>
<path d="M6965 5940 c-3 -11 -15 -20 -26 -20 -17 0 -19 -7 -19 -60 l0 -60 -37
0 c-53 0 -83 10 -83 26 0 8 9 14 20 14 17 0 20 7 20 40 l0 40 -60 0 -60 0 1
-67 c0 -38 3 -62 6 -55 7 17 23 15 23 -3 0 -8 -4 -15 -10 -15 -5 0 -10 -7 -10
-15 0 -8 5 -15 10 -15 6 0 10 7 10 15 0 9 9 15 23 15 13 0 28 5 35 12 9 9 15
9 24 0 7 -7 20 -12 30 -12 10 0 18 -4 18 -10 0 -5 8 -10 18 -10 11 0 27 -9 37
-20 10 -11 29 -20 42 -20 12 0 23 -4 23 -10 0 -5 7 -10 16 -10 8 0 12 5 9 10
-4 6 6 10 24 10 25 0 30 -4 33 -27 2 -20 8 -27 21 -25 9 2 20 -4 24 -13 5 -14
8 -14 15 -3 7 10 11 10 15 1 2 -7 13 -13 23 -13 10 0 23 -12 30 -30 8 -20 20
-30 34 -30 15 0 17 -3 8 -9 -9 -6 -3 -10 22 -14 45 -7 92 6 88 24 -2 8 0 11 3
7 6 -6 87 32 104 48 7 6 -31 44 -43 44 -7 0 -19 9 -29 20 -9 11 -24 20 -33 20
-8 0 -33 18 -54 40 -21 22 -46 40 -54 40 -9 0 -16 5 -16 10 0 6 9 10 20 10 11
0 20 5 20 10 0 6 -9 10 -20 10 -11 0 -20 5 -20 10 0 6 -7 10 -15 10 -9 0 -29
16 -46 35 -51 58 -200 89 -214 45z m35 -190 c0 -5 -11 -10 -24 -10 -14 0 -28
5 -31 10 -4 6 7 10 24 10 17 0 31 -4 31 -10z"/>
<path d="M1665 5895 c-5 -2 -23 -6 -38 -9 -57 -13 -65 -113 -17 -212 30 -61
106 -154 176 -216 20 -18 56 -50 79 -70 23 -21 68 -50 101 -65 53 -25 69 -28
169 -28 68 1 118 5 132 13 12 7 72 15 133 19 96 5 129 13 103 25 -24 10 -73
102 -128 239 -49 124 -105 178 -203 194 -23 4 -87 20 -142 35 -54 16 -127 34
-162 40 -35 7 -67 15 -73 20 -11 8 -114 21 -130 15z"/>
<path d="M4403 5805 c0 -22 2 -30 4 -17 2 12 2 30 0 40 -3 9 -5 -1 -4 -23z"/>
<path d="M5800 5755 c0 -8 5 -15 10 -15 6 0 10 7 10 15 0 8 -4 15 -10 15 -5 0
-10 -7 -10 -15z"/>
<path d="M3160 5650 c0 -73 -38 -273 -64 -331 -13 -31 -44 -134 -66 -219 -4
-19 -13 -54 -19 -76 -6 -23 -11 -52 -11 -65 0 -13 -9 -49 -20 -79 -30 -81 -28
-90 20 -90 52 0 170 -29 191 -46 8 -8 18 -14 21 -14 24 0 134 197 187 335 15
38 -1 126 -28 161 -11 14 -23 39 -26 56 -4 17 -17 40 -30 52 -14 13 -37 69
-64 156 -23 74 -48 150 -56 168 -8 18 -15 39 -15 47 0 8 -4 15 -10 15 -6 0
-10 -30 -10 -70z"/>
<path d="M938 5662 c-29 -19 -78 -72 -78 -84 0 -5 -11 -8 -24 -8 -15 0 -46
-20 -83 -54 -32 -29 -83 -73 -113 -98 -33 -26 -84 -86 -128 -149 -40 -57 -81
-107 -90 -110 -16 -6 -16 -7 1 -14 22 -9 22 -31 -5 -102 -27 -72 -24 -70 -48
-48 -19 17 -19 17 -9 -16 6 -19 16 -58 21 -87 6 -29 12 -51 15 -49 9 10 33
114 33 148 0 34 13 60 71 138 23 31 70 53 157 73 57 12 93 43 186 152 22 27
49 58 60 69 30 32 74 131 81 183 9 63 -7 82 -47 56z"/>
<path d="M4240 5636 c0 -2 8 -10 18 -17 15 -13 16 -12 3 4 -13 16 -21 21 -21
13z"/>
<path d="M7160 5616 c0 -9 5 -16 10 -16 6 0 10 4 10 9 0 6 -4 13 -10 16 -5 3
-10 -1 -10 -9z"/>
<path d="M7077 5491 c-4 -17 -3 -21 5 -13 5 5 8 16 6 23 -3 8 -7 3 -11 -10z"/>
<path d="M7030 5469 c0 -5 5 -7 10 -4 6 3 10 8 10 11 0 2 -4 4 -10 4 -5 0 -10
-5 -10 -11z"/>
<path d="M2585 5169 c-55 -5 -158 -11 -230 -14 -353 -14 -411 -17 -419 -25
-14 -14 85 -103 159 -142 79 -41 155 -57 285 -59 47 -1 76 -4 66 -6 -33 -9
-113 -63 -93 -63 10 0 28 5 39 11 11 6 55 17 97 25 42 7 108 21 146 30 39 9
100 21 137 28 37 6 72 16 79 23 8 8 3 32 -21 95 -28 75 -35 86 -64 96 -35 13
-35 13 -181 1z"/>
<path d="M7367 4903 c-30 -34 -80 -207 -104 -360 -6 -39 -35 -67 -60 -59 -10
3 -35 22 -55 41 -57 55 -103 66 -180 44 -35 -9 -38 -13 -38 -48 0 -41 50 -129
79 -138 9 -3 33 -14 54 -25 21 -11 75 -25 120 -32 l81 -11 14 -45 c33 -107 41
-170 42 -319 0 -148 -10 -218 -35 -251 -6 -8 -17 -37 -23 -64 -7 -27 -24 -74
-39 -105 -14 -31 -30 -66 -35 -77 -7 -16 -5 -30 8 -55 14 -26 19 -30 22 -16 2
9 8 17 13 17 5 0 9 7 9 15 0 9 23 60 50 115 47 95 52 100 72 89 32 -17 123 -4
206 30 93 38 132 62 132 79 0 8 6 12 14 9 18 -7 46 24 46 51 0 30 -37 54 -63
41 -10 -6 -57 -17 -103 -24 -93 -16 -132 -31 -148 -59 -16 -27 -98 -108 -103
-102 -14 14 -1 58 35 116 36 59 38 65 20 68 -15 3 -17 6 -7 18 8 10 8 14 0 14
-29 0 -6 30 34 46 25 9 45 21 45 25 0 5 17 9 38 9 20 0 62 7 92 15 30 8 69 15
85 15 44 0 87 44 136 141 42 84 42 84 36 171 -3 48 -11 97 -18 109 -6 13 -26
63 -43 113 -22 61 -38 92 -49 94 -11 2 -17 -3 -17 -16 0 -11 -8 -30 -19 -43
-38 -50 -151 -221 -151 -230 0 -5 -8 -28 -18 -52 -38 -85 -44 -117 -37 -180 4
-34 12 -68 18 -75 5 -7 7 -15 4 -18 -10 -10 -141 -24 -149 -16 -5 5 -11 60
-14 123 -3 63 -10 130 -15 149 -17 64 -12 74 56 125 83 63 99 96 100 200 0
145 -25 240 -85 326 -25 34 -31 35 -53 12z"/>
<path d="M414 4791 c3 -18 6 -40 6 -47 0 -7 6 -11 14 -8 12 4 12 12 4 37 -16
47 -32 59 -24 18z"/>
<path d="M415 4709 c-4 -6 -5 -12 -2 -15 2 -3 7 2 10 11 7 17 1 20 -8 4z"/>
<path d="M2960 4676 l0 -43 -133 -7 c-143 -7 -143 -7 -280 52 -55 23 -78 28
-115 24 -55 -6 -62 -13 -62 -69 0 -47 29 -113 68 -155 59 -65 245 -96 362 -61
80 23 93 21 108 -19 11 -31 12 -31 32 -13 14 13 20 31 20 60 0 38 6 48 52 93
l52 51 21 -19 c23 -22 35 -25 35 -10 0 5 16 30 35 56 19 25 35 49 35 52 0 4
-28 7 -63 8 -44 1 -72 7 -97 23 -55 33 -70 29 -70 -23z"/>
<path d="M3190 4519 c-76 -50 -76 -53 -77 -217 -1 -103 3 -157 12 -179 8 -18
16 -33 18 -33 2 0 2 32 -1 71 -4 65 8 134 29 164 23 33 80 226 67 225 -2 0
-23 -14 -48 -31z"/>
<path d="M2840 4330 c0 -6 11 -8 28 -4 39 10 40 14 4 14 -18 0 -32 -5 -32 -10z"/>
<path d="M6818 4183 c-10 -10 -25 -36 -34 -58 -16 -38 -15 -39 17 -102 32 -62
41 -70 136 -124 17 -10 54 -24 81 -33 53 -15 88 -32 109 -50 6 -6 28 -24 47
-41 20 -16 47 -40 61 -52 30 -26 30 -24 6 46 -14 41 -17 61 -9 80 13 34 3 95
-26 156 -42 91 -194 185 -311 193 -49 3 -63 1 -77 -15z"/>
<path d="M966 3737 c3 -10 9 -15 12 -12 3 3 0 11 -7 18 -10 9 -11 8 -5 -6z"/>
<path d="M3890 3735 c0 -2 10 -10 23 -16 20 -11 21 -11 8 4 -13 16 -31 23 -31
12z"/>
<path d="M731 3624 c0 -11 3 -14 6 -6 3 7 2 16 -1 19 -3 4 -6 -2 -5 -13z"/>
<path d="M667 3475 c-4 -8 -3 -16 1 -19 4 -3 9 4 9 15 2 23 -3 25 -10 4z"/>
<path d="M170 3396 c0 -2 8 -10 18 -17 15 -13 16 -12 3 4 -13 16 -21 21 -21
13z"/>
<path d="M2504 3354 c-22 -28 -33 -35 -52 -31 -15 3 -32 -2 -43 -12 -25 -24
-101 -140 -122 -186 -29 -67 -57 -195 -57 -264 0 -63 -16 -201 -24 -209 -2 -2
-22 6 -45 17 -24 13 -59 21 -89 21 -40 0 -52 -5 -73 -27 -36 -42 -48 -69 -71
-163 -29 -117 -33 -421 -5 -488 9 -23 17 -56 17 -72 0 -17 18 -72 40 -124 22
-51 40 -101 40 -110 0 -49 -102 19 -145 97 -15 27 -49 75 -76 108 -47 56 -52
59 -92 58 -23 -1 -53 -4 -67 -8 -52 -15 -88 -126 -111 -349 -19 -179 -4 -256
68 -352 48 -65 77 -145 67 -186 -19 -81 -138 -164 -233 -164 -30 0 -101 33
-132 62 -51 48 -59 69 -64 180 -4 83 -10 116 -30 162 -21 47 -23 60 -13 76 7
11 17 20 21 20 5 0 6 7 3 16 -4 12 -2 15 9 10 8 -3 15 -1 15 4 0 6 8 10 18 11
10 0 12 3 5 6 -17 6 -17 24 -1 21 7 -2 14 7 16 20 2 12 7 22 12 22 5 0 7 -8 3
-17 -5 -15 -3 -14 10 2 9 11 17 28 17 38 0 9 7 17 15 17 8 0 15 4 15 9 0 5 6
16 13 23 29 29 81 134 80 163 -1 17 1 22 4 12 4 -15 8 -12 23 16 11 20 16 44
13 57 -4 14 -2 21 4 17 18 -11 56 96 55 156 0 15 4 27 9 27 14 0 11 60 -7 106
-11 29 -21 41 -30 37 -8 -3 -21 0 -29 7 -7 6 -29 13 -47 14 -25 2 -35 -3 -43
-18 -13 -27 -61 -29 -59 -4 1 10 -2 15 -7 12 -5 -3 -9 -13 -9 -22 0 -13 -2
-14 -9 -3 -7 10 -12 8 -24 -10 -9 -12 -14 -26 -12 -30 3 -4 -13 -5 -34 -2 -32
4 -41 2 -50 -15 -6 -11 -21 -24 -32 -27 -15 -5 -18 -9 -9 -15 9 -5 9 -9 1 -14
-6 -4 -11 -4 -11 0 0 4 -9 -1 -20 -11 -11 -10 -17 -21 -14 -26 2 -4 -14 -14
-36 -20 -23 -7 -36 -15 -29 -19 6 -5 -1 -12 -19 -18 -17 -6 -41 -21 -54 -34
-25 -25 -53 -44 -80 -54 -10 -3 -18 -13 -18 -21 0 -8 -4 -12 -9 -9 -4 3 -17
-1 -27 -9 -17 -13 -17 -16 -4 -26 13 -9 12 -10 -4 -5 -21 7 -49 -11 -39 -27 3
-5 2 -7 -4 -4 -5 4 -19 -2 -30 -12 -11 -10 -28 -21 -39 -25 -10 -3 -32 -17
-49 -31 -16 -15 -45 -36 -65 -47 -19 -12 -37 -25 -40 -29 -9 -13 -189 -97
-194 -91 -3 3 -6 1 -6 -5 0 -6 -16 -14 -35 -17 -39 -8 -43 -14 -17 -38 29 -28
41 -46 35 -52 -4 -3 -1 -6 6 -6 7 0 9 -5 6 -10 -3 -5 1 -10 10 -10 9 0 14 -4
11 -8 -6 -10 59 -84 67 -76 3 3 10 -4 17 -15 6 -12 15 -21 20 -21 5 0 22 -12
37 -26 76 -72 125 -104 157 -102 35 2 59 16 50 29 -3 5 -1 9 5 9 5 0 13 -4 16
-10 3 -5 16 -10 29 -10 12 0 27 -5 33 -11 14 -14 156 49 149 66 -2 6 5 12 16
12 26 2 49 23 41 36 -4 6 -1 7 7 2 8 -5 18 -1 27 10 7 11 13 14 13 9 0 -13
-66 -83 -110 -116 -138 -105 -396 -395 -454 -510 -11 -21 -23 -38 -27 -38 -11
0 -39 -55 -39 -77 0 -10 -6 -29 -13 -43 -7 -14 -24 -52 -37 -85 -13 -33 -33
-73 -44 -90 -12 -16 -48 -74 -82 -130 -33 -55 -67 -100 -75 -100 -12 0 -14 27
-13 160 2 138 5 174 28 259 29 109 31 169 21 501 -2 93 -1 171 4 175 10 6 23
82 12 76 -12 -8 1 68 16 90 10 17 11 23 2 26 -14 5 3 171 28 256 8 29 12 60 9
68 -3 7 -1 14 4 14 6 0 10 13 10 29 0 16 4 31 9 33 5 2 11 22 13 44 3 23 12
53 21 68 9 14 17 38 17 54 0 15 4 32 10 38 5 5 10 72 11 149 2 134 4 143 33
200 16 33 35 63 40 68 8 5 7 10 -1 15 -9 5 -10 17 -4 37 5 17 10 24 10 17 2
-21 21 -3 21 19 0 15 -6 20 -22 17 -19 -2 -23 -9 -21 -35 1 -26 -2 -33 -16
-33 -17 0 -18 10 -15 118 l3 119 -25 -5 c-19 -3 -24 0 -24 17 0 18 -5 22 -27
19 -20 -2 -27 -7 -23 -18 10 -31 0 -282 -14 -362 -9 -46 -18 -99 -21 -118 -3
-19 -10 -53 -15 -75 -19 -87 -29 -153 -36 -220 -3 -38 -30 -193 -60 -344 -30
-151 -54 -285 -54 -298 0 -41 -14 -25 -55 63 -22 47 -43 88 -47 91 -5 2 -8
-320 -8 -716 l0 -721 458 0 457 0 29 123 c62 265 134 433 231 542 50 56 55 53
23 -14 -26 -54 -38 -192 -18 -216 7 -8 10 -22 6 -30 -3 -10 11 -37 39 -71 60
-73 84 -123 78 -157 -6 -31 12 -37 20 -7 5 19 7 19 55 -10 51 -32 84 -69 96
-108 5 -15 18 -25 37 -29 16 -3 29 -9 29 -14 0 -5 5 -9 10 -9 6 0 10 13 10 30
0 17 4 30 8 30 4 0 29 -13 54 -29 l46 -29 226 -1 c212 -1 226 0 217 17 -18 33
-83 237 -88 275 -5 39 21 117 38 117 5 0 12 -12 15 -26 7 -28 37 -64 54 -64
16 0 30 -36 30 -77 1 -43 23 -92 34 -74 11 18 28 2 21 -20 -4 -12 -2 -19 7
-19 7 0 19 -9 26 -20 6 -11 27 -26 45 -34 19 -7 48 -28 66 -45 46 -45 61 -41
61 17 0 40 8 64 36 100 8 11 76 -68 90 -104 l17 -44 153 0 154 0 40 42 c22 24
40 46 40 49 0 3 12 19 26 35 32 35 70 116 79 166 4 22 19 47 37 63 16 15 36
42 44 61 13 30 34 47 34 26 0 -4 17 -25 38 -47 22 -22 51 -59 67 -83 15 -23
29 -42 31 -42 6 0 101 65 141 97 38 30 43 32 57 17 15 -14 17 -13 27 15 13 35
35 43 24 8 -34 -107 -70 -269 -68 -302 1 -22 3 -55 3 -72 l0 -33 325 0 c322 0
326 0 357 23 17 12 39 29 48 38 18 17 53 138 65 224 4 28 10 61 12 75 12 69
14 409 4 510 -13 125 -48 290 -62 290 -4 0 -13 -19 -20 -42 -6 -24 -24 -83
-40 -133 -16 -49 -36 -114 -46 -143 -9 -28 -19 -52 -23 -52 -4 0 -13 -12 -21
-27 -24 -49 -102 -167 -128 -196 -14 -15 -41 -39 -59 -53 -28 -22 -35 -24 -49
-12 -60 50 -103 186 -113 360 -5 91 -13 142 -28 180 -12 29 -32 82 -46 118
-70 181 -103 241 -163 296 -65 61 -97 74 -120 51 -13 -12 -13 -25 -4 -87 7
-40 9 -80 6 -90 -3 -9 4 -29 16 -44 14 -18 18 -30 12 -34 -6 -4 -16 -65 -23
-137 -6 -71 -18 -144 -26 -162 -21 -46 -65 -86 -110 -100 -21 -6 -47 -15 -58
-19 -16 -6 -17 -4 -11 27 19 83 -3 193 -52 269 l-26 38 -22 -26 c-13 -15 -51
-49 -85 -77 -34 -27 -94 -76 -132 -108 -39 -31 -73 -57 -77 -57 -3 0 -26 -18
-51 -41 -72 -65 -99 -79 -158 -79 -61 0 -122 22 -122 45 0 8 4 23 9 33 5 9 17
38 25 63 9 26 24 53 34 62 14 12 76 32 168 54 26 6 153 107 174 137 8 13 25
34 37 47 64 70 104 123 109 147 4 15 24 54 44 88 33 53 63 112 124 246 9 20
21 60 26 90 6 29 19 77 31 107 11 29 18 54 17 55 -40 23 -58 23 -129 -1 -41
-14 -93 -38 -117 -54 -24 -16 -47 -29 -52 -29 -5 0 -56 -36 -114 -80 -58 -44
-108 -80 -111 -80 -3 0 -36 -20 -73 -44 -98 -65 -160 -92 -173 -79 -7 7 -12
55 -12 120 -1 96 4 127 40 273 36 140 52 184 108 292 49 96 67 144 74 192 9
60 3 118 -13 145 -11 17 -120 13 -177 -5 -56 -18 -75 -12 -39 13 12 9 30 25
39 35 9 11 24 29 34 41 10 11 20 32 23 46 3 14 8 32 10 40 9 29 44 287 44 326
0 22 -13 94 -30 160 -16 66 -30 121 -30 122 0 2 -7 3 -14 3 -8 0 -27 -16 -42
-36z m-974 -1205 c6 -11 9 -25 6 -32 -2 -7 -5 -5 -5 5 -1 9 -8 24 -17 32 -8 9
-11 16 -5 16 6 0 15 -9 21 -21z m-1163 -101 c-3 -7 -5 -2 -5 12 0 14 2 19 5
13 2 -7 2 -19 0 -25z m1007 -423 c-4 -8 -8 -15 -10 -15 -2 0 -4 7 -4 15 0 8 4
15 10 15 5 0 7 -7 4 -15z m-499 -435 c3 -5 1 -10 -4 -10 -6 0 -11 5 -11 10 0
6 2 10 4 10 3 0 8 -4 11 -10z m1149 -1147 c8 -19 -14 -37 -28 -23 -10 10 -1
40 13 40 5 0 12 -8 15 -17z"/>
<path d="M243 3330 c2 -8 -5 -31 -16 -50 l-19 -35 21 19 c11 10 18 23 15 27
-3 5 0 9 5 9 6 0 11 -5 11 -12 0 -6 3 -9 6 -6 3 4 -2 19 -11 35 -9 15 -14 21
-12 13z"/>
<path d="M930 3300 c-8 -5 -11 -12 -7 -16 4 -4 13 -2 19 4 15 15 7 24 -12 12z"/>
<path d="M270 3255 c0 -3 7 -17 16 -30 10 -15 12 -25 5 -25 -6 0 -11 -9 -11
-20 0 -13 7 -20 20 -20 26 0 25 20 -1 64 -20 34 -29 43 -29 31z"/>
<path d="M840 3240 c0 -6 7 -10 15 -10 8 0 15 2 15 4 0 2 -7 6 -15 10 -8 3
-15 1 -15 -4z"/>
<path d="M885 3230 c-3 -6 1 -7 9 -4 18 7 21 14 7 14 -6 0 -13 -4 -16 -10z"/>
<path d="M21 3193 c-7 -21 -16 -68 -18 -104 -5 -72 -6 -68 64 -146 20 -22 37
-33 47 -30 11 4 13 1 9 -10 -5 -13 -2 -15 11 -10 9 4 15 3 12 -1 -3 -5 8 -16
24 -25 30 -18 45 -10 34 17 -8 20 3 66 16 66 5 0 12 -10 16 -22 3 -12 18 -33
32 -47 25 -25 25 -25 20 -3 -4 12 -2 22 4 22 5 0 7 9 3 19 -3 11 1 46 10 78
10 32 17 66 18 76 1 9 10 20 20 23 16 5 17 8 6 15 -27 17 -44 8 -63 -31 -14
-30 -25 -40 -43 -40 -12 0 -23 5 -23 10 0 6 -9 10 -19 10 -11 0 -22 8 -26 19
-3 10 -15 29 -26 42 -11 12 -18 28 -15 35 5 13 -14 24 -43 24 -10 0 -23 11
-29 25 -16 34 -25 31 -41 -12z m179 -323 c0 -5 -2 -10 -4 -10 -3 0 -8 5 -11
10 -3 6 -1 10 4 10 6 0 11 -4 11 -10z"/>
<path d="M169 3213 c-23 -6 -13 -53 12 -53 12 0 19 7 19 20 0 11 0 23 1 27 1
9 -11 12 -32 6z"/>
<path d="M805 3190 c-8 -13 5 -13 25 0 13 8 13 10 -2 10 -9 0 -20 -4 -23 -10z"/>
<path d="M720 3150 c-8 -5 -10 -10 -5 -10 6 0 17 5 25 10 8 5 11 10 5 10 -5 0
-17 -5 -25 -10z"/>
<path d="M524 2913 c2 -12 1 -23 -4 -25 -4 -2 -10 -34 -13 -73 -3 -42 -2 -58
3 -40 4 17 8 45 9 63 0 18 9 45 19 59 9 15 12 24 5 20 -6 -4 -14 -1 -17 5 -4
7 -4 3 -2 -9z"/>
<path d="M561 2918 c-1 -23 15 -32 23 -12 3 8 2 13 -3 9 -5 -3 -12 1 -14 7 -4
8 -6 7 -6 -4z"/>
<path d="M452 2900 c0 -14 2 -19 5 -12 2 6 2 18 0 25 -3 6 -5 1 -5 -13z"/>
<path d="M383 2820 c-30 -12 -32 -60 -3 -60 13 0 20 7 20 20 0 11 6 20 13 20
8 0 8 3 -2 9 -11 7 -9 10 10 14 18 3 19 4 4 5 -11 0 -30 -3 -42 -8z"/>
<path d="M533 2794 c-7 -7 -13 -23 -13 -36 0 -20 1 -21 16 -6 9 8 14 25 12 36
-2 17 -5 18 -15 6z"/>
<path d="M1063 2753 c9 -2 23 -2 30 0 6 3 -1 5 -18 5 -16 0 -22 -2 -12 -5z"/>
<path d="M481 2594 c0 -11 3 -14 6 -6 3 7 2 16 -1 19 -3 4 -6 -2 -5 -13z"/>
<path d="M606 2508 c3 -5 10 -6 15 -3 13 9 11 12 -6 12 -8 0 -12 -4 -9 -9z"/>
<path d="M1281 2504 c0 -11 3 -14 6 -6 3 7 2 16 -1 19 -3 4 -6 -2 -5 -13z"/>
<path d="M1075 2440 c-3 -5 -2 -10 4 -10 5 0 13 5 16 10 3 6 2 10 -4 10 -5 0
-13 -4 -16 -10z"/>
<path d="M965 2410 c-3 -6 1 -7 9 -4 18 7 21 14 7 14 -6 0 -13 -4 -16 -10z"/>
<path d="M0 2340 c0 -10 10 -20 22 -23 27 -7 30 -5 23 16 -9 23 -45 29 -45 7z"/>
<path d="M1190 2309 c0 -5 5 -7 10 -4 6 3 10 8 10 11 0 2 -4 4 -10 4 -5 0 -10
-5 -10 -11z"/>
<path d="M5555 2290 c3 -5 11 -10 16 -10 6 0 7 5 4 10 -3 6 -11 10 -16 10 -6
0 -7 -4 -4 -10z"/>
<path d="M1136 2264 c-9 -8 -16 -23 -16 -32 0 -13 5 -11 20 8 29 37 26 55 -4
24z"/>
<path d="M565 2260 c-8 -13 -1 -24 14 -19 6 3 7 10 2 18 -6 10 -10 10 -16 1z"/>
<path d="M5545 2260 c3 -5 10 -10 16 -10 5 0 9 5 9 10 0 6 -7 10 -16 10 -8 0
-12 -4 -9 -10z"/>
<path d="M41 2243 c-11 -12 -12 -33 -7 -92 4 -42 7 -95 6 -118 -1 -35 2 -42
15 -37 11 5 14 2 8 -12 -4 -11 -3 -15 4 -11 6 4 14 0 17 -8 4 -11 14 -14 33
-9 19 4 24 3 15 -4 -10 -7 -4 -14 25 -27 21 -10 42 -20 46 -23 5 -2 3 6 -3 19
-7 13 -14 32 -15 44 -4 34 -5 36 -12 32 -5 -3 -9 14 -10 36 -1 23 -6 43 -12
45 -6 2 -11 9 -11 16 0 10 -73 153 -83 162 -1 1 -8 -5 -16 -13z"/>
<path d="M1036 2215 c-4 -14 -11 -25 -16 -25 -6 0 -10 -7 -10 -15 0 -8 -7 -15
-15 -15 -8 0 -15 -4 -15 -10 0 -13 0 -13 48 10 22 11 45 20 51 20 5 0 13 4 16
10 3 5 0 7 -8 4 -11 -4 -13 1 -10 20 4 21 1 26 -15 26 -13 0 -22 -9 -26 -25z"/>
<path d="M497 2202 c-22 -24 -22 -38 1 -21 15 13 16 12 4 -3 -8 -9 -19 -15
-25 -13 -14 5 -25 -2 -50 -31 -18 -22 -18 -22 30 -19 26 2 52 3 56 4 6 1 7
101 1 101 0 0 -8 -8 -17 -18z"/>
<path d="M540 2150 c0 -5 5 -10 10 -10 6 0 10 5 10 10 0 6 -4 10 -10 10 -5 0
-10 -4 -10 -10z"/>
<path d="M520 2110 c-9 -6 -10 -10 -3 -10 6 0 15 5 18 10 8 12 4 12 -15 0z"/>
<path d="M807 2100 c-4 -16 -2 -18 13 -10 9 5 21 6 26 2 5 -4 2 1 -5 11 -18
22 -27 22 -34 -3z"/>
<path d="M10 2051 c0 -6 5 -13 10 -16 6 -3 10 1 10 9 0 9 -4 16 -10 16 -5 0
-10 -4 -10 -9z"/>
<path d="M8080 1730 c0 -6 7 -13 15 -16 8 -3 17 -15 20 -26 5 -13 14 -18 28
-16 12 2 21 6 20 11 -2 4 -3 18 -3 32 0 23 -4 25 -40 25 -22 0 -40 -5 -40 -10z
m47 -32 c-3 -8 -6 -5 -6 6 -1 11 2 17 5 13 3 -3 4 -12 1 -19z"/>
<path d="M7788 1632 c-28 -12 -88 -72 -89 -90 0 -9 -3 -26 -6 -37 -8 -29 -6
-101 6 -170 6 -33 13 -86 15 -118 3 -32 9 -64 15 -71 6 -7 18 -43 26 -81 18
-75 28 -98 56 -128 10 -11 26 -43 34 -71 9 -28 20 -59 25 -68 5 -9 18 -50 29
-90 11 -40 24 -86 30 -103 10 -31 27 -218 23 -245 -2 -8 -4 -23 -6 -32 -4 -31
-13 -30 -24 1 -6 17 -8 31 -5 31 3 0 -14 21 -38 47 -25 27 -56 74 -69 105 -14
31 -34 62 -45 68 -37 20 -190 43 -270 40 -71 -2 -83 -5 -112 -30 -27 -24 -30
-30 -17 -40 20 -18 17 -42 -11 -91 -14 -24 -25 -56 -25 -71 0 -15 -4 -30 -10
-33 -5 -3 -10 -16 -9 -28 0 -21 1 -21 8 -2 7 17 9 16 15 -12 8 -35 23 -43 32
-18 4 8 16 15 28 15 13 0 37 15 56 36 32 36 34 36 94 32 101 -8 251 -99 293
-178 23 -43 77 -72 111 -59 13 5 36 9 52 9 23 0 31 5 36 25 3 14 4 31 1 39 -3
8 -1 17 6 20 9 3 9 7 1 13 -14 10 -19 52 -40 378 -11 168 -13 276 -7 330 l8
80 48 2 c42 2 47 0 48 -20 0 -12 3 -16 6 -10 2 7 4 15 3 19 -1 4 4 10 10 14 7
4 10 12 7 17 -8 13 -84 16 -92 3 -3 -5 -12 -10 -19 -10 -11 0 -15 38 -18 173
-5 185 -16 231 -73 298 -13 16 -26 38 -30 49 -3 11 -12 20 -19 20 -7 0 -23 11
-36 25 -25 27 -26 27 -52 17z"/>
<path d="M8172 1603 c-13 -3 -26 -11 -29 -19 -3 -8 -11 -14 -19 -14 -9 0 -14
-11 -14 -29 0 -16 -3 -36 -6 -45 -4 -11 5 -18 37 -26 41 -11 45 -10 65 13 14
17 20 34 17 51 -4 18 -1 26 8 26 12 0 12 2 0 9 -9 6 -10 11 -2 15 6 4 11 11
11 17 0 9 -26 10 -68 2z"/>
<path d="M9270 1179 c0 -5 5 -7 10 -4 6 3 10 8 10 11 0 2 -4 4 -10 4 -5 0 -10
-5 -10 -11z"/>
<path d="M5467 1069 c4 -13 8 -18 11 -10 2 7 -1 18 -6 23 -8 8 -9 4 -5 -13z"/>
<path d="M8457 1064 c-16 -8 -35 -13 -43 -10 -13 5 -19 -6 -15 -28 1 -5 -7 -6
-18 -3 -16 4 -20 1 -18 -16 1 -15 -4 -23 -18 -25 -12 -2 -29 -19 -40 -39 -11
-20 -40 -65 -65 -99 -46 -63 -82 -121 -86 -139 -1 -5 -11 -47 -23 -92 -23 -88
-28 -212 -10 -245 15 -28 71 -49 111 -41 33 6 112 54 158 96 95 87 183 299
199 476 9 94 8 97 -18 136 -31 46 -67 55 -114 29z m120 -86 c-3 -8 -6 -5 -6 6
-1 11 2 17 5 13 3 -3 4 -12 1 -19z"/>
<path d="M10200 1060 c0 -13 -7 -20 -20 -20 -17 0 -20 -7 -20 -40 l0 -40 -60
0 c-53 0 -60 2 -60 20 0 13 -7 20 -20 20 -13 0 -20 -7 -20 -20 0 -15 -7 -20
-24 -20 -14 0 -33 -10 -43 -23 -10 -12 -34 -30 -53 -39 -19 -9 -55 -37 -80
-62 -24 -25 -52 -46 -61 -46 -10 0 -19 -4 -21 -9 -1 -5 -20 -12 -40 -16 -36
-7 -38 -6 -57 36 -10 24 -27 64 -37 89 -24 61 -37 70 -79 57 -19 -6 -35 -14
-35 -19 0 -4 -7 -8 -15 -8 -8 0 -15 -8 -15 -17 -1 -10 -9 -36 -20 -58 -11 -22
-19 -46 -20 -53 0 -7 -8 -38 -19 -70 -10 -31 -24 -83 -30 -115 -15 -68 -51
-118 -81 -110 -13 4 -20 14 -21 32 0 23 -1 24 -9 6 -14 -31 -11 -55 5 -55 8 0
15 -3 15 -6 0 -9 -22 -49 -30 -54 -10 -6 13 -128 37 -200 27 -81 53 -120 80
-120 15 0 23 -6 23 -17 0 -10 18 -33 40 -50 l39 -33 155 0 c149 0 156 1 156
20 0 17 7 20 40 20 33 0 40 -3 40 -20 0 -20 6 -20 200 -20 l200 1 0 540 c0
532 0 539 -20 539 -13 0 -20 -7 -20 -20z"/>
<path d="M10048 1043 c6 -2 18 -2 25 0 6 3 1 5 -13 5 -14 0 -19 -2 -12 -5z"/>
<path d="M9011 808 c-1 -10 -6 -18 -12 -18 -6 0 -9 -7 -5 -15 3 -9 0 -15 -9
-15 -14 0 -20 13 -15 35 1 6 -4 4 -11 -2 -10 -10 -16 -9 -31 4 -23 21 -23 6 2
-57 25 -62 25 -79 3 -86 -10 -4 -31 -12 -48 -19 -100 -43 -108 -46 -117 -33
-6 10 -8 8 -8 -4 0 -10 -5 -18 -10 -18 -15 0 -110 -98 -110 -114 0 -7 -13 -40
-30 -74 -16 -34 -30 -74 -30 -88 0 -14 -3 -23 -7 -21 -13 8 -15 -180 -3 -217
15 -46 28 -55 81 -57 74 -3 164 36 225 100 58 58 159 199 151 207 -3 3 1 21 9
40 17 42 45 248 44 329 0 33 2 74 5 90 4 25 3 26 -3 5 -7 -22 -9 -23 -15 -6
-6 14 -10 16 -21 7 -11 -10 -16 -6 -24 16 -7 17 -11 21 -11 11z"/>
<path d="M9100 715 c0 -8 2 -15 4 -15 2 0 6 7 10 15 3 8 1 15 -4 15 -6 0 -10
-7 -10 -15z"/>
<path d="M2230 82 c0 -12 19 -26 26 -19 2 2 -2 10 -11 17 -9 8 -15 8 -15 2z"/>
<path d="M4399 49 l-24 -21 60 7 c69 8 83 14 64 26 -25 16 -75 10 -100 -12z"/>
<path d="M8007 38 c-22 -8 -26 -13 -16 -24 18 -21 66 -18 72 5 8 33 -6 38 -56
19z"/>
</g>
</svg>
